<?xml version="1.0" standalone="no"?>
<!DOCTYPE svg PUBLIC "-//W3C//DTD SVG 1.1//EN" "http://www.w3.org/Graphics/SVG/1.1/DTD/svg11.dtd" >
<svg xmlns="http://www.w3.org/2000/svg" xmlns:xlink="http://www.w3.org/1999/xlink" version="1.1">
<metadata></metadata>
<defs>
<font id="nsmbwii_1regular" horiz-adv-x="840" >
<font-face units-per-em="2048" ascent="1556" descent="-492" />
<missing-glyph horiz-adv-x="600" />
<glyph horiz-adv-x="0" />
<glyph unicode="&#xd;" horiz-adv-x="600" />
<glyph unicode=" "  horiz-adv-x="600" />
<glyph unicode="&#x09;" horiz-adv-x="600" />
<glyph unicode="&#xa0;" horiz-adv-x="600" />
<glyph unicode="!" horiz-adv-x="420" d="M70 0v308h280v-308h-280zM70 434v1092h280v-1092h-280z" />
<glyph unicode="&#x22;" horiz-adv-x="770" d="M70 1092v588h280v-588h-280zM420 1092v588h280v-588h-280z" />
<glyph unicode="#" horiz-adv-x="1120" d="M70 308v308h140v308h-140v308h140v294h280v-294h140v294h280v-294h140v-308h-140v-308h140v-308h-140v-308h-280v308h-140v-308h-280v308h-140zM490 616h140v308h-140v-308z" />
<glyph unicode="$" d="M70 336v280h280v-280h140v224q0 56 -84 98l-196 98q-140 70 -140 168v266q0 140 63 224t161 112v154h252v-154q98 -28 161 -112t63 -224v-266h-280v266h-140v-196q0 -56 84 -98l196 -98q140 -70 140 -168v-294q0 -140 -63 -224t-161 -112v-154h-252v154q-98 28 -161 112 t-63 224z" />
<glyph unicode="%" horiz-adv-x="1904" d="M70 938v252q0 168 91 259t259 91t259 -91t91 -259v-252q0 -168 -91 -259t-259 -91t-259 91t-91 259zM350 938h140v252h-140v-252zM602 0l420 1526h280l-420 -1526h-280zM1134 336v252q0 168 91 259t259 91t259 -91t91 -259v-252q0 -168 -91 -259t-259 -91t-259 91 t-91 259zM1414 336h140v252h-140v-252z" />
<glyph unicode="&#x26;" horiz-adv-x="910" d="M70 336v280q0 98 84 154q-84 56 -84 154v266q0 168 91 259t259 91t259 -91t91 -259v-126h-280v126h-140v-854h140v280h-70v308h420v-308h-70v-280q0 -168 -91 -259t-259 -91t-259 91t-91 259z" />
<glyph unicode="'" horiz-adv-x="420" d="M70 1092v588h280v-588h-280z" />
<glyph unicode="(" horiz-adv-x="630" d="M70 756v14q0 308 84 581t126 329h280q-42 -56 -126 -329t-84 -581v-14q0 -308 84 -581t126 -329h-280q-42 56 -126 329t-84 581z" />
<glyph unicode=")" horiz-adv-x="700" d="M70 -154q42 56 126 329t84 581v14q0 308 -84 581t-126 329h280q42 -56 126 -329t84 -581v-14q0 -308 -84 -581t-126 -329h-280z" />
<glyph unicode="*" horiz-adv-x="896" d="M70 1120v196h196l-112 182l168 98l126 -210l126 210l168 -98l-112 -182h196v-196h-196l112 -182l-168 -98l-126 210l-126 -210l-168 98l112 182h-196z" />
<glyph unicode="+" d="M70 462v308h210v238h280v-238h210v-308h-210v-238h-280v238h-210z" />
<glyph unicode="," horiz-adv-x="420" d="M70 0v308h280v-308l-182 -154l14 154h-112z" />
<glyph unicode="-" d="M70 616v308h700v-308h-700z" />
<glyph unicode="." horiz-adv-x="420" d="M70 0v308h280v-308h-280z" />
<glyph unicode="/" d="M70 0l420 1526h280l-420 -1526h-280z" />
<glyph unicode="0" d="M70 336v854q0 168 91 259t259 91t259 -91t91 -259v-854q0 -168 -91 -259t-259 -91t-259 91t-91 259zM350 336h140v854h-140v-854z" />
<glyph unicode="1" horiz-adv-x="560" d="M70 1218v308h420v-1526h-280v1218h-140z" />
<glyph unicode="2" d="M70 0v616q0 140 70 224t210 84h140v266h-140v-126h-280v126q0 168 91 259t259 91t259 -91t91 -259v-266q0 -140 -70 -224t-210 -84h-140v-308h140v154h280v-462h-700z" />
<glyph unicode="3" d="M70 336v126h280v-126h140v280h-140v308h140v266h-140v-126h-280v126q0 168 91 259t259 91t259 -91t91 -259v-266q0 -98 -84 -154q84 -56 84 -154v-280q0 -168 -91 -259t-259 -91t-259 91t-91 259z" />
<glyph unicode="4" d="M70 616v910h280v-602h140v602h280v-1526h-280v616h-420z" />
<glyph unicode="5" d="M70 336v126h280v-126h140v280h-420v910h700v-462h-280v154h-140v-294h140q140 0 210 -84t70 -224v-280q0 -168 -91 -259t-259 -91t-259 91t-91 259z" />
<glyph unicode="6" d="M70 336v854q0 168 91 259t259 91t259 -91t91 -259v-126h-280v126h-140v-266h140q140 0 210 -84t70 -224v-280q0 -168 -91 -259t-259 -91t-259 91t-91 259zM350 336h140v280h-140v-280z" />
<glyph unicode="7" d="M70 0l336 1218h-336v308h700l-420 -1526h-280z" />
<glyph unicode="8" d="M70 336v280q0 98 84 154q-84 56 -84 154v266q0 168 91 259t259 91t259 -91t91 -259v-266q0 -98 -84 -154q84 -56 84 -154v-280q0 -168 -91 -259t-259 -91t-259 91t-91 259zM350 336h140v280h-140v-280zM350 924h140v266h-140v-266z" />
<glyph unicode="9" d="M70 336v126h280v-126h140v266h-140q-140 0 -210 84t-70 224v280q0 168 91 259t259 91t259 -91t91 -259v-854q0 -168 -91 -259t-259 -91t-259 91t-91 259zM350 910h140v280h-140v-280z" />
<glyph unicode=":" horiz-adv-x="420" d="M70 0v308h280v-308h-280zM70 616v308h280v-308h-280z" />
<glyph unicode=";" horiz-adv-x="420" d="M70 0v308h280v-308l-182 -154l14 154h-112zM70 616v308h280v-308h-280z" />
<glyph unicode="&#x3c;" d="M70 504v308l700 210v-308l-350 -56l350 -56v-308z" />
<glyph unicode="=" d="M70 308v308h700v-308h-700zM70 700v308h700v-308h-700z" />
<glyph unicode="&#x3e;" d="M70 294v308l350 56l-350 56v308l700 -210v-308z" />
<glyph unicode="?" d="M70 1064v126q0 168 91 259t259 91t259 -91t91 -259v-266q0 -140 -56 -217t-154 -91v-182h-280v182q0 140 56 217t154 91v266h-140v-126h-280zM280 0v308h280v-308h-280z" />
<glyph unicode="@" horiz-adv-x="1680" d="M70 308v756q0 140 70 217t210 91h980q140 0 210 -84t70 -224v-756q0 -140 -70 -224t-210 -84h-560q-140 0 -210 84t-70 224v308q0 140 70 224t210 84h420v-616h140v756h-980v-1064q-140 0 -210 84t-70 224zM770 308h140v308h-140v-308z" />
<glyph unicode="A" d="M70 0v616q0 308 84 581t126 329h280q42 -56 126 -329t84 -581v-616h-280v308h-140v-308h-280zM350 616h140q0 308 -70 574q-70 -266 -70 -574z" />
<glyph unicode="B" d="M70 0v1526h420q140 0 210 -84t70 -224v-294q0 -98 -84 -154q84 -56 84 -154v-308q0 -140 -70 -224t-210 -84h-420zM350 308h140v308h-140v-308zM350 924h140v294h-140v-294z" />
<glyph unicode="C" d="M70 336v854q0 168 91 259t259 91t259 -91t91 -259v-266h-280v266h-140v-854h140v280h280v-280q0 -168 -91 -259t-259 -91t-259 91t-91 259z" />
<glyph unicode="D" d="M70 0v1526h420q140 0 210 -84t70 -224v-910q0 -140 -70 -224t-210 -84h-420zM350 308h140v910h-140v-910z" />
<glyph unicode="E" d="M70 0v1526h700v-308h-420v-294h350v-308h-350v-308h420v-308h-700z" />
<glyph unicode="F" d="M70 0v1526h700v-308h-420v-294h350v-308h-350v-616h-280z" />
<glyph unicode="G" d="M70 336v854q0 168 91 259t259 91t259 -91t91 -259v-140h-280v140h-140v-854h140v280h-70v308h350v-588q0 -168 -91 -259t-259 -91t-259 91t-91 259z" />
<glyph unicode="H" d="M70 0v1526h280v-602h140v602h280v-1526h-280v616h-140v-616h-280z" />
<glyph unicode="I" horiz-adv-x="420" d="M70 0v1092h280v-1092h-280zM70 1218v308h280v-308h-280z" />
<glyph unicode="J" d="M70 336v280h280v-280h140v756h280v-756q0 -168 -91 -259t-259 -91t-259 91t-91 259zM490 1218v308h280v-308h-280z" />
<glyph unicode="K" d="M70 0v1526h280v-602l140 602h280l-182 -756l182 -770h-280l-140 616v-616h-280z" />
<glyph unicode="L" d="M70 0v1526h280v-1218h420v-308h-700z" />
<glyph unicode="M" horiz-adv-x="1260" d="M70 0v1526h280l280 -756l280 756h280v-1526h-280v770l-280 -770l-280 770v-770h-280z" />
<glyph unicode="N" d="M70 0v1526h280l140 -504v504h280v-1526h-280l-140 504v-504h-280z" />
<glyph unicode="O" d="M70 336v854q0 168 91 259t259 91t259 -91t91 -259v-854q0 -168 -91 -259t-259 -91t-259 91t-91 259zM350 336h140v854h-140v-854z" />
<glyph unicode="P" d="M70 0v1526h420q140 0 210 -84t70 -224v-294q0 -140 -70 -224t-210 -84h-140v-616h-280zM350 924h140v294h-140v-294z" />
<glyph unicode="Q" horiz-adv-x="882" d="M70 336v854q0 168 91 259t259 91t259 -91t91 -259v-854q0 -98 -28 -154l126 -126l-210 -182l-126 126q-42 -14 -112 -14q-168 0 -259 91t-91 259zM350 336h140v854h-140v-854z" />
<glyph unicode="R" d="M70 0v1526h420q140 0 210 -84t70 -224v-294q0 -98 -84 -154q84 -56 84 -154v-616h-280v616h-140v-616h-280zM350 924h140v294h-140v-294z" />
<glyph unicode="S" d="M70 336v280h280v-280h140v224q0 56 -84 98l-196 98q-140 70 -140 168v266q0 168 91 259t259 91t259 -91t91 -259v-266h-280v266h-140v-196q0 -56 84 -98l196 -98q140 -70 140 -168v-294q0 -168 -91 -259t-259 -91t-259 91t-91 259z" />
<glyph unicode="T" d="M70 1218v308h700v-308h-210v-1218h-280v1218h-210z" />
<glyph unicode="U" d="M70 336v1190h280v-1190h140v1190h280v-1190q0 -168 -91 -259t-259 -91t-259 91t-91 259z" />
<glyph unicode="V" d="M70 1526h280l70 -574l70 574h280l-210 -1526h-280z" />
<glyph unicode="W" horiz-adv-x="1260" d="M70 1526h280l70 -574l70 574h280l70 -574l70 574h280l-210 -1526h-280l-70 518l-70 -518h-280z" />
<glyph unicode="X" d="M70 0l210 770l-210 756h280l70 -322l70 322h280l-210 -756l210 -770h-280l-70 322l-70 -322h-280z" />
<glyph unicode="Y" d="M70 1526h280l70 -364l70 364h280l-210 -910v-616h-280v616z" />
<glyph unicode="Z" d="M70 0l336 1218h-336v308h700l-336 -1218h336v-308h-700z" />
<glyph unicode="[" horiz-adv-x="700" d="M70 -154v1834h560v-308h-280v-1218h280v-308h-560z" />
<glyph unicode="\" d="M70 1526h280l420 -1526h-280z" />
<glyph unicode="]" horiz-adv-x="700" d="M70 -154v308h280v1218h-280v308h560v-1834h-560z" />
<glyph unicode="^" d="M70 826l210 700h280l210 -700h-280l-70 364l-70 -364h-280z" />
<glyph unicode="_" d="M70 0h700v-308h-700v308z" />
<glyph unicode="`" horiz-adv-x="532" d="M70 1526h308l84 -336h-252z" />
<glyph unicode="a" d="M70 0v1190q0 168 91 259t259 91t259 -91t91 -259v-1190h-280v308h-140v-308h-280zM350 616h140v574h-140v-574z" />
<glyph unicode="b" d="M70 0v1526h420q140 0 210 -84t70 -224v-294q0 -98 -84 -154q84 -56 84 -154v-308q0 -140 -70 -224t-210 -84h-70v308h70v308h-70v308h70v294h-140v-1218h-280z" />
<glyph unicode="c" d="M70 336v854q0 168 91 259t259 91t259 -91t91 -259v-266h-280v266h-140v-854h140v280h280v-280q0 -168 -91 -259t-259 -91t-259 91t-91 259z" />
<glyph unicode="d" d="M70 0v1526h420q140 0 210 -84t70 -224v-910q0 -140 -70 -224t-210 -84h-420zM350 308h140v910h-140v-910z" />
<glyph unicode="e" d="M70 336v854q0 168 91 259t259 91t259 -91t91 -259v-126h-280v126h-140v-266h140v-308h-140v-280h140v126h280v-126q0 -168 -91 -259t-259 -91t-259 91t-91 259z" />
<glyph unicode="f" d="M70 0v1190q0 168 91 259t259 91t259 -91t91 -259v-126h-280v126h-140v-266h140v-308h-140v-616h-280z" />
<glyph unicode="g" d="M70 336v854q0 168 91 259t259 91t259 -91t91 -259v-140h-280v140h-140v-854h140v280h-70v308h350v-588q0 -168 -91 -259t-259 -91t-259 91t-91 259z" />
<glyph unicode="h" d="M70 0v1526h280v-602h140v602h280v-1526h-280v616h-140v-616h-280z" />
<glyph unicode="i" horiz-adv-x="420" d="M70 0v1526h280v-1526h-280z" />
<glyph unicode="j" d="M70 336v280h280v-280h140v1190h280v-1190q0 -168 -91 -259t-259 -91t-259 91t-91 259z" />
<glyph unicode="k" d="M70 0v1526h280v-602h140v602h280v-602q0 -98 -84 -154q84 -56 84 -154v-616h-280v616h-140v-616h-280z" />
<glyph unicode="l" d="M70 308v1218h280v-1218h420v-308h-420q-140 0 -210 84t-70 224z" />
<glyph unicode="m" horiz-adv-x="1260" d="M70 0v1190q0 168 91 259t259 91q126 0 210 -56q84 56 210 56q168 0 259 -91t91 -259v-1190h-280v1190h-140v-1190h-280v1190h-140v-1190h-280z" />
<glyph unicode="n" d="M70 0v1190q0 168 91 259t259 91t259 -91t91 -259v-1190h-280v1190h-140v-1190h-280z" />
<glyph unicode="o" d="M70 336v854q0 168 91 259t259 91t259 -91t91 -259v-854q0 -168 -91 -259t-259 -91t-259 91t-91 259zM350 336h140v854h-140v-854z" />
<glyph unicode="p" d="M70 0v1526h420q140 0 210 -84t70 -224v-294q0 -140 -70 -224t-210 -84h-70v308h70v294h-140v-1218h-280z" />
<glyph unicode="q" horiz-adv-x="882" d="M70 336v854q0 168 91 259t259 91t259 -91t91 -259v-854q0 -98 -28 -154l126 -126l-210 -182l-126 126q-42 -14 -112 -14q-168 0 -259 91t-91 259zM350 336h140v854h-140v-854z" />
<glyph unicode="r" d="M70 0v1526h420q140 0 210 -84t70 -224v-294q0 -98 -84 -154q84 -56 84 -154v-616h-280v616h-70v308h70v294h-140v-1218h-280z" />
<glyph unicode="s" d="M70 336v280h280v-280h140v224q0 56 -84 98l-196 98q-140 70 -140 168v266q0 168 91 259t259 91t259 -91t91 -259v-266h-280v266h-140v-196q0 -56 84 -98l196 -98q140 -70 140 -168v-294q0 -168 -91 -259t-259 -91t-259 91t-91 259z" />
<glyph unicode="t" d="M70 1218v308h700v-308h-210v-1218h-280v1218h-210z" />
<glyph unicode="u" d="M70 336v1190h280v-1190h140v1190h280v-1190q0 -168 -91 -259t-259 -91t-259 91t-91 259z" />
<glyph unicode="v" d="M70 910v616h280v-616q0 -308 70 -574q70 266 70 574v616h280v-616q0 -308 -84 -581t-126 -329h-280q-42 56 -126 329t-84 581z" />
<glyph unicode="w" horiz-adv-x="1260" d="M70 336v1190h280v-1190h140v1190h280v-1190h140v1190h280v-1190q0 -168 -91 -259t-259 -91q-126 0 -210 56q-84 -56 -210 -56q-168 0 -259 91t-91 259z" />
<glyph unicode="x" d="M70 0v616q0 98 84 154q-84 56 -84 154v602h280v-602h140v602h280v-602q0 -98 -84 -154q84 -56 84 -154v-616h-280v616h-140v-616h-280z" />
<glyph unicode="y" d="M70 924v602h280v-602h140v602h280v-602q0 -140 -63 -224t-147 -105v-595h-280v595q-84 21 -147 105t-63 224z" />
<glyph unicode="z" d="M70 0l336 1218h-336v308h700l-336 -1218h336v-308h-700z" />
<glyph unicode="{" d="M70 616v308h140v448q0 140 70 224t210 84h280v-308h-280v-448q0 -98 -84 -154q84 -56 84 -154v-462h280v-308h-280q-140 0 -210 84t-70 224v462h-140z" />
<glyph unicode="|" horiz-adv-x="420" d="M70 -154v1834h280v-1834h-280z" />
<glyph unicode="}" d="M70 -154v308h280v462q0 98 84 154q-84 56 -84 154v448h-280v308h280q140 0 210 -84t70 -224v-448h140v-308h-140v-462q0 -140 -70 -224t-210 -84h-280z" />
<glyph unicode="~" horiz-adv-x="1218" d="M70 490v154q0 140 84 210t224 70q98 0 224 -49t238 -91v140h308v-140q0 -140 -84 -210t-224 -70q-98 0 -224 49t-238 91v-154h-308z" />
<glyph unicode="&#xa2;" d="M70 336v854q0 140 63 224t161 112v154h252v-154q98 -28 161 -112t63 -224v-266h-280v266h-140v-854h140v280h280v-280q0 -140 -63 -224t-161 -112v-154h-252v154q-98 28 -161 112t-63 224z" />
<glyph unicode="&#xa3;" d="M70 0v1190q0 168 91 259t259 91t259 -91t91 -259v-140h-280v140h-140v-266h140v-308h-140v-308h420v-308h-700z" />
<glyph unicode="&#xa5;" d="M70 308v308h154q-56 28 -105 105t-49 203v602h280v-602h140v602h280v-602q0 -126 -49 -203t-105 -105h154v-308h-210v-308h-280v308h-210z" />
<glyph unicode="&#xad;" d="M70 616v308h700v-308h-700z" />
<glyph unicode="&#xb4;" horiz-adv-x="532" d="M70 1190l84 336h308l-140 -336h-252z" />
<glyph unicode="&#xc0;" d="M70 0v616q0 308 84 581t126 329h280q42 -56 126 -329t84 -581v-616h-280v308h-140v-308h-280zM182 1932h308l84 -336h-252zM350 616h140q0 308 -70 574q-70 -266 -70 -574z" />
<glyph unicode="&#xc1;" d="M70 0v616q0 308 84 581t126 329h280q42 -56 126 -329t84 -581v-616h-280v308h-140v-308h-280zM266 1596l84 336h308l-140 -336h-252zM350 616h140q0 308 -70 574q-70 -266 -70 -574z" />
<glyph unicode="&#xc2;" d="M70 0v616q0 308 84 581t126 329h280q42 -56 126 -329t84 -581v-616h-280v308h-140v-308h-280zM70 1932h308l42 -168l42 168h308l-140 -336h-420zM350 616h140q0 308 -70 574q-70 -266 -70 -574z" />
<glyph unicode="&#xc3;" d="M70 0v616q0 308 84 581t126 329h280q42 -56 126 -329t84 -581v-616h-280v308h-140v-308h-280zM70 1596v280q98 42 175 42t175 -28t175 -28t175 42v-280q-98 -42 -175 -42t-175 28t-175 28t-175 -42zM350 616h140q0 308 -70 574q-70 -266 -70 -574z" />
<glyph unicode="&#xc4;" d="M70 0v616q0 308 84 581t126 329h280q42 -56 126 -329t84 -581v-616h-280v308h-140v-308h-280zM98 1596v308h280v-308h-280zM350 616h140q0 308 -70 574q-70 -266 -70 -574zM462 1596v308h280v-308h-280z" />
<glyph unicode="&#xc6;" horiz-adv-x="1190" d="M0 0v616q0 308 84 581t126 329h910v-308h-518q42 -126 70 -294h378v-308h-350v-308h420v-308h-700v308h-140v-308h-280zM280 616h140q0 308 -70 574q-70 -266 -70 -574z" />
<glyph unicode="&#xc7;" d="M70 336v854q0 168 91 259t259 91t259 -91t91 -259v-266h-280v266h-140v-854h140v280h280v-280q0 -154 -70 -238v-238q0 -140 -70 -224t-210 -84h-70v308h70v126q-168 0 -259 91t-91 259z" />
<glyph unicode="&#xc8;" d="M70 0v1526h700v-308h-420v-294h350v-308h-350v-308h420v-308h-700zM182 1932h308l84 -336h-252z" />
<glyph unicode="&#xc9;" d="M70 0v1526h700v-308h-420v-294h350v-308h-350v-308h420v-308h-700zM266 1596l84 336h308l-140 -336h-252z" />
<glyph unicode="&#xca;" d="M70 0v1526h700v-308h-420v-294h350v-308h-350v-308h420v-308h-700zM70 1932h308l42 -168l42 168h308l-140 -336h-420z" />
<glyph unicode="&#xcb;" d="M70 0v1526h700v-308h-420v-294h350v-308h-350v-308h420v-308h-700zM98 1596v308h280v-308h-280zM462 1596v308h280v-308h-280z" />
<glyph unicode="&#xcc;" horiz-adv-x="420" d="M-56 1526h308l84 -336h-252zM70 0v1092h280v-1092h-280z" />
<glyph unicode="&#xcd;" horiz-adv-x="420" d="M70 0v1092h280v-1092h-280zM84 1190l84 336h308l-140 -336h-252z" />
<glyph unicode="&#xce;" horiz-adv-x="420" d="M-140 1526h308l42 -168l42 168h308l-140 -336h-420zM70 0v1092h280v-1092h-280z" />
<glyph unicode="&#xcf;" horiz-adv-x="420" d="M-112 1218v308h280v-308h-280zM70 0v1092h280v-1092h-280zM252 1218v308h280v-308h-280z" />
<glyph unicode="&#xd0;" horiz-adv-x="910" d="M70 616v308h70v602h420q140 0 210 -84t70 -224v-910q0 -140 -70 -224t-210 -84h-420v616h-70zM420 308h140v910h-140v-294h70v-308h-70v-308z" />
<glyph unicode="&#xd1;" d="M70 0v1526h280l140 -504v504h280v-1526h-280l-140 504v-504h-280zM70 1596v280q98 42 175 42t175 -28t175 -28t175 42v-280q-98 -42 -175 -42t-175 28t-175 28t-175 -42z" />
<glyph unicode="&#xd2;" d="M70 336v854q0 168 91 259t259 91t259 -91t91 -259v-854q0 -168 -91 -259t-259 -91t-259 91t-91 259zM182 1932h308l84 -336h-252zM350 336h140v854h-140v-854z" />
<glyph unicode="&#xd3;" d="M70 336v854q0 168 91 259t259 91t259 -91t91 -259v-854q0 -168 -91 -259t-259 -91t-259 91t-91 259zM266 1596l84 336h308l-140 -336h-252zM350 336h140v854h-140v-854z" />
<glyph unicode="&#xd4;" d="M70 336v854q0 168 91 259t259 91t259 -91t91 -259v-854q0 -168 -91 -259t-259 -91t-259 91t-91 259zM70 1932h308l42 -168l42 168h308l-140 -336h-420zM350 336h140v854h-140v-854z" />
<glyph unicode="&#xd5;" d="M70 336v854q0 168 91 259t259 91t259 -91t91 -259v-854q0 -168 -91 -259t-259 -91t-259 91t-91 259zM70 1596v280q98 42 175 42t175 -28t175 -28t175 42v-280q-98 -42 -175 -42t-175 28t-175 28t-175 -42zM350 336h140v854h-140v-854z" />
<glyph unicode="&#xd6;" d="M70 336v854q0 168 91 259t259 91t259 -91t91 -259v-854q0 -168 -91 -259t-259 -91t-259 91t-91 259zM98 1596v308h280v-308h-280zM350 336h140v854h-140v-854zM462 1596v308h280v-308h-280z" />
<glyph unicode="&#xd7;" horiz-adv-x="1064" d="M70 210l252 252l-252 252l210 210l252 -252l252 252l210 -210l-252 -252l252 -252l-210 -210l-252 252l-252 -252z" />
<glyph unicode="&#xd8;" horiz-adv-x="1064" d="M70 -42l112 308v924q0 168 91 259t259 91q70 0 112 -14l56 154l294 -112l-112 -308v-924q0 -168 -91 -259t-259 -91q-70 0 -112 14l-56 -154zM462 336h140v854h-140v-854z" />
<glyph unicode="&#xd9;" d="M70 336v1190h280v-1190h140v1190h280v-1190q0 -168 -91 -259t-259 -91t-259 91t-91 259zM182 1932h308l84 -336h-252z" />
<glyph unicode="&#xda;" d="M70 336v1190h280v-1190h140v1190h280v-1190q0 -168 -91 -259t-259 -91t-259 91t-91 259zM266 1596l84 336h308l-140 -336h-252z" />
<glyph unicode="&#xdb;" d="M70 336v1190h280v-1190h140v1190h280v-1190q0 -168 -91 -259t-259 -91t-259 91t-91 259zM70 1932h308l42 -168l42 168h308l-140 -336h-420z" />
<glyph unicode="&#xdc;" d="M70 336v1190h280v-1190h140v1190h280v-1190q0 -168 -91 -259t-259 -91t-259 91t-91 259zM98 1596v308h280v-308h-280zM462 1596v308h280v-308h-280z" />
<glyph unicode="&#xdd;" d="M70 1526h280l70 -364l70 364h280l-210 -910v-616h-280v616zM266 1596l84 336h308l-140 -336h-252z" />
<glyph unicode="&#xde;" d="M70 0v1526h280v-294h140q140 0 210 -84t70 -224v-294q0 -140 -70 -224t-210 -84h-140v-322h-280zM350 630h140v294h-140v-294z" />
<glyph unicode="&#xdf;" horiz-adv-x="1680" d="M70 336v280h280v-280h140v224q0 56 -84 98l-196 98q-140 70 -140 168v266q0 168 91 259t259 91t259 -91t91 -259v-266h-280v266h-140v-196q0 -56 84 -98l196 -98q140 -70 140 -168v-294q0 -168 -91 -259t-259 -91t-259 91t-91 259zM910 336v280h280v-280h140v224 q0 56 -84 98l-196 98q-140 70 -140 168v266q0 168 91 259t259 91t259 -91t91 -259v-266h-280v266h-140v-196q0 -56 84 -98l196 -98q140 -70 140 -168v-294q0 -168 -91 -259t-259 -91t-259 91t-91 259z" />
<glyph unicode="&#xe0;" d="M70 0v1190q0 168 91 259t259 91t259 -91t91 -259v-1190h-280v308h-140v-308h-280zM182 1932h308l84 -336h-252zM350 616h140v574h-140v-574z" />
<glyph unicode="&#xe1;" d="M70 0v1190q0 168 91 259t259 91t259 -91t91 -259v-1190h-280v308h-140v-308h-280zM266 1596l84 336h308l-140 -336h-252zM350 616h140v574h-140v-574z" />
<glyph unicode="&#xe2;" d="M70 0v1190q0 168 91 259t259 91t259 -91t91 -259v-1190h-280v308h-140v-308h-280zM70 1932h308l42 -168l42 168h308l-140 -336h-420zM350 616h140v574h-140v-574z" />
<glyph unicode="&#xe3;" d="M70 0v1190q0 168 91 259t259 91t259 -91t91 -259v-1190h-280v308h-140v-308h-280zM70 1596v280q98 42 175 42t175 -28t175 -28t175 42v-280q-98 -42 -175 -42t-175 28t-175 28t-175 -42zM350 616h140v574h-140v-574z" />
<glyph unicode="&#xe4;" d="M70 0v1190q0 168 91 259t259 91t259 -91t91 -259v-1190h-280v308h-140v-308h-280zM98 1596v308h280v-308h-280zM350 616h140v574h-140v-574zM462 1596v308h280v-308h-280z" />
<glyph unicode="&#xe6;" horiz-adv-x="1240" d="M0 0v1190q0 168 91 259t259 91q126 0 210 -56q84 56 210 56q168 0 259 -91t91 -259v-126h-280v126h-140v-266h140v-308h-140v-280h140v126h280v-126q0 -168 -91 -259t-259 -91t-259 91t-91 231h-140v-308h-280zM280 616h140v574h-140v-574z" />
<glyph unicode="&#xe7;" d="M70 336v854q0 168 91 259t259 91t259 -91t91 -259v-266h-280v266h-140v-854h140v280h280v-280q0 -154 -70 -238v-238q0 -140 -70 -224t-210 -84h-70v308h70v126q-168 0 -259 91t-91 259z" />
<glyph unicode="&#xe8;" d="M70 336v854q0 168 91 259t259 91t259 -91t91 -259v-126h-280v126h-140v-266h140v-308h-140v-280h140v126h280v-126q0 -168 -91 -259t-259 -91t-259 91t-91 259zM182 1932h308l84 -336h-252z" />
<glyph unicode="&#xe9;" d="M70 336v854q0 168 91 259t259 91t259 -91t91 -259v-126h-280v126h-140v-266h140v-308h-140v-280h140v126h280v-126q0 -168 -91 -259t-259 -91t-259 91t-91 259zM266 1596l84 336h308l-140 -336h-252z" />
<glyph unicode="&#xea;" d="M70 336v854q0 168 91 259t259 91t259 -91t91 -259v-126h-280v126h-140v-266h140v-308h-140v-280h140v126h280v-126q0 -168 -91 -259t-259 -91t-259 91t-91 259zM70 1932h308l42 -168l42 168h308l-140 -336h-420z" />
<glyph unicode="&#xeb;" d="M70 336v854q0 168 91 259t259 91t259 -91t91 -259v-126h-280v126h-140v-266h140v-308h-140v-280h140v126h280v-126q0 -168 -91 -259t-259 -91t-259 91t-91 259zM98 1596v308h280v-308h-280zM462 1596v308h280v-308h-280z" />
<glyph unicode="&#xec;" horiz-adv-x="420" d="M-56 1932h308l84 -336h-252zM70 0v1526h280v-1526h-280z" />
<glyph unicode="&#xed;" horiz-adv-x="420" d="M70 0v1526h280v-1526h-280zM84 1596l84 336h308l-140 -336h-252z" />
<glyph unicode="&#xee;" horiz-adv-x="420" d="M-140 1932h308l42 -168l42 168h308l-140 -336h-420zM70 0v1526h280v-1526h-280z" />
<glyph unicode="&#xef;" horiz-adv-x="420" d="M-112 1596v308h280v-308h-280zM70 0v1526h280v-1526h-280zM252 1596v308h280v-308h-280z" />
<glyph unicode="&#xf0;" horiz-adv-x="910" d="M70 616v308h70v602h420q140 0 210 -84t70 -224v-910q0 -140 -70 -224t-210 -84h-420v616h-70zM420 308h140v910h-140v-294h70v-308h-70v-308z" />
<glyph unicode="&#xf1;" d="M70 0v1190q0 168 91 259t259 91t259 -91t91 -259v-1190h-280v1190h-140v-1190h-280zM70 1596v280q98 42 175 42t175 -28t175 -28t175 42v-280q-98 -42 -175 -42t-175 28t-175 28t-175 -42z" />
<glyph unicode="&#xf2;" d="M70 336v854q0 168 91 259t259 91t259 -91t91 -259v-854q0 -168 -91 -259t-259 -91t-259 91t-91 259zM182 1932h308l84 -336h-252zM350 336h140v854h-140v-854z" />
<glyph unicode="&#xf3;" d="M70 336v854q0 168 91 259t259 91t259 -91t91 -259v-854q0 -168 -91 -259t-259 -91t-259 91t-91 259zM266 1596l84 336h308l-140 -336h-252zM350 336h140v854h-140v-854z" />
<glyph unicode="&#xf4;" d="M70 336v854q0 168 91 259t259 91t259 -91t91 -259v-854q0 -168 -91 -259t-259 -91t-259 91t-91 259zM70 1932h308l42 -168l42 168h308l-140 -336h-420zM350 336h140v854h-140v-854z" />
<glyph unicode="&#xf5;" d="M70 336v854q0 168 91 259t259 91t259 -91t91 -259v-854q0 -168 -91 -259t-259 -91t-259 91t-91 259zM70 1596v280q98 42 175 42t175 -28t175 -28t175 42v-280q-98 -42 -175 -42t-175 28t-175 28t-175 -42zM350 336h140v854h-140v-854z" />
<glyph unicode="&#xf6;" d="M70 336v854q0 168 91 259t259 91t259 -91t91 -259v-854q0 -168 -91 -259t-259 -91t-259 91t-91 259zM98 1596v308h280v-308h-280zM350 336h140v854h-140v-854zM462 1596v308h280v-308h-280z" />
<glyph unicode="&#xf7;" horiz-adv-x="980" d="M70 546v308h840v-308h-840zM350 322q0 70 42 112t98 42t98 -42t42 -112t-42 -112t-98 -42t-98 42t-42 112zM350 1078q0 70 42 112t98 42t98 -42t42 -112t-42 -112t-98 -42t-98 42t-42 112z" />
<glyph unicode="&#xf8;" horiz-adv-x="1064" d="M70 -42l112 308v924q0 168 91 259t259 91q70 0 112 -14l56 154l294 -112l-112 -308v-924q0 -168 -91 -259t-259 -91q-70 0 -112 14l-56 -154zM462 336h140v854h-140v-854z" />
<glyph unicode="&#xf9;" d="M70 336v1190h280v-1190h140v1190h280v-1190q0 -168 -91 -259t-259 -91t-259 91t-91 259zM182 1932h308l84 -336h-252z" />
<glyph unicode="&#xfa;" d="M70 336v1190h280v-1190h140v1190h280v-1190q0 -168 -91 -259t-259 -91t-259 91t-91 259zM266 1596l84 336h308l-140 -336h-252z" />
<glyph unicode="&#xfb;" d="M70 336v1190h280v-1190h140v1190h280v-1190q0 -168 -91 -259t-259 -91t-259 91t-91 259zM70 1932h308l42 -168l42 168h308l-140 -336h-420z" />
<glyph unicode="&#xfc;" d="M70 336v1190h280v-1190h140v1190h280v-1190q0 -168 -91 -259t-259 -91t-259 91t-91 259zM98 1596v308h280v-308h-280zM462 1596v308h280v-308h-280z" />
<glyph unicode="&#xfd;" d="M70 924v602h280v-602h140v602h280v-602q0 -140 -63 -224t-147 -105v-595h-280v595q-84 21 -147 105t-63 224zM266 1596l84 336h308l-140 -336h-252z" />
<glyph unicode="&#xfe;" d="M70 0v1526h280v-294h140q140 0 210 -84t70 -224v-294q0 -140 -70 -224t-210 -84h-70v308h70v294h-140v-924h-280z" />
<glyph unicode="&#xff;" d="M70 924v602h280v-602h140v602h280v-602q0 -140 -63 -224t-147 -105v-595h-280v595q-84 21 -147 105t-63 224zM98 1596v308h280v-308h-280zM462 1596v308h280v-308h-280z" />
<glyph unicode="&#x152;" horiz-adv-x="1260" d="M70 336v854q0 168 91 259t259 91q70 0 112 -14h658v-308h-420v-294h350v-308h-350v-308h420v-308h-658q-42 -14 -112 -14q-168 0 -259 91t-91 259zM350 308h140v910h-140v-910z" />
<glyph unicode="&#x153;" horiz-adv-x="1260" d="M70 336v854q0 168 91 259t259 91q126 0 210 -56q84 56 210 56q168 0 259 -91t91 -259v-126h-280v126h-140v-266h140v-308h-140v-280h140v126h280v-126q0 -168 -91 -259t-259 -91q-126 0 -210 56q-84 -56 -210 -56q-168 0 -259 91t-91 259zM350 336h140v854h-140v-854z " />
<glyph unicode="&#x178;" d="M70 1526h280l70 -364l70 364h280l-210 -910v-616h-280v616zM98 1596v308h280v-308h-280zM462 1596v308h280v-308h-280z" />
<glyph unicode="&#x2000;" horiz-adv-x="966" />
<glyph unicode="&#x2001;" horiz-adv-x="1932" />
<glyph unicode="&#x2002;" horiz-adv-x="966" />
<glyph unicode="&#x2003;" horiz-adv-x="1932" />
<glyph unicode="&#x2004;" horiz-adv-x="644" />
<glyph unicode="&#x2005;" horiz-adv-x="483" />
<glyph unicode="&#x2006;" horiz-adv-x="322" />
<glyph unicode="&#x2007;" horiz-adv-x="322" />
<glyph unicode="&#x2008;" horiz-adv-x="241" />
<glyph unicode="&#x2009;" horiz-adv-x="386" />
<glyph unicode="&#x200a;" horiz-adv-x="107" />
<glyph unicode="&#x2010;" d="M70 616v308h700v-308h-700z" />
<glyph unicode="&#x2011;" d="M70 616v308h700v-308h-700z" />
<glyph unicode="&#x2012;" d="M70 616v308h700v-308h-700z" />
<glyph unicode="&#x2013;" horiz-adv-x="1164" d="M70 616v308h1024v-308h-1024z" />
<glyph unicode="&#x2014;" horiz-adv-x="2188" d="M70 616v308h2048v-308h-2048z" />
<glyph unicode="&#x2018;" horiz-adv-x="420" d="M70 1218v308l182 154l-14 -154h112v-308h-280z" />
<glyph unicode="&#x2019;" horiz-adv-x="420" d="M70 1372v308h280v-308l-182 -154l14 154h-112z" />
<glyph unicode="&#x201c;" horiz-adv-x="770" d="M70 1218v308l182 154l-14 -154h112v-308h-280zM420 1218v308l182 154l-14 -154h112v-308h-280z" />
<glyph unicode="&#x201d;" horiz-adv-x="770" d="M70 1372v308h280v-308l-182 -154l14 154h-112zM420 1372v308h280v-308l-182 -154l14 154h-112z" />
<glyph unicode="&#x202f;" horiz-adv-x="386" />
<glyph unicode="&#x205f;" horiz-adv-x="483" />
<glyph unicode="&#x20ac;" horiz-adv-x="980" d="M70 420v308h140v84h-140v308h140v70q0 168 91 259t259 91t259 -91t91 -259v-266h-280v266h-140v-70h70v-308h-70v-84h70v-308h-70v-84h140v280h280v-280q0 -168 -91 -259t-259 -91t-259 91t-91 259v84h-140z" />
<glyph unicode="&#x25fc;" horiz-adv-x="1525" d="M0 0v1525h1525v-1525h-1525z" />
</font>
</defs>
</svg>
